<svg width="72" height="79" viewBox="0 0 72 79" fill="none" xmlns="http://www.w3.org/2000/svg">
<rect x="1" y="1" width="70" height="77" fill="white"/>
<path d="M58.4633 20H13.4967C12.3041 20 11.1603 20.3573 10.317 20.9934C9.47375 21.6295 9 22.4921 9 23.3917V57.3083C9 58.2079 9.47375 59.0705 10.317 59.7066C11.1603 60.3427 12.3041 60.7 13.4967 60.7H58.4633C59.6559 60.7 60.7997 60.3427 61.643 59.7066C62.4862 59.0705 62.96 58.2079 62.96 57.3083V23.3917C62.96 22.4921 62.4862 21.6295 61.643 20.9934C60.7997 20.3573 59.6559 20 58.4633 20ZM58.4633 57.3083H13.4967V47.1333L24.7383 38.6542L37.3065 48.1339C38.149 48.7656 39.2887 49.1201 40.4767 49.1201C41.6646 49.1201 42.8043 48.7656 43.6468 48.1339L47.2217 45.4375L58.4633 53.9167V57.3083ZM58.4633 49.1175L50.3918 43.0294C49.5493 42.3977 48.4096 42.0431 47.2217 42.0431C46.0337 42.0431 44.894 42.3977 44.0515 43.0294L40.4767 45.7258L27.9085 36.2461C27.066 35.6144 25.9263 35.2598 24.7383 35.2598C23.5504 35.2598 22.4107 35.6144 21.5682 36.2461L13.4967 42.3341V23.3917H58.4633V49.1175Z" fill="black"/>
<path d="M19.5 35.6154C20.39 35.6154 21.26 35.3334 22.0001 34.8051C22.7401 34.2769 23.3169 33.526 23.6575 32.6475C23.9981 31.769 24.0872 30.8024 23.9135 29.8698C23.7399 28.9372 23.3113 28.0805 22.682 27.4081C22.0526 26.7358 21.2508 26.2779 20.3779 26.0924C19.505 25.9069 18.6002 26.0021 17.7779 26.366C16.9557 26.7298 16.2529 27.3461 15.7584 28.1367C15.2639 28.9273 15 29.8568 15 30.8077C15 32.0828 15.4741 33.3056 16.318 34.2072C17.1619 35.1089 18.3065 35.6154 19.5 35.6154ZM19.5 29.2051C19.7967 29.2051 20.0867 29.2991 20.3334 29.4752C20.58 29.6513 20.7723 29.9016 20.8858 30.1944C20.9993 30.4872 21.0291 30.8095 20.9712 31.1203C20.9133 31.4312 20.7704 31.7168 20.5607 31.9409C20.3509 32.165 20.0836 32.3176 19.7926 32.3795C19.5017 32.4413 19.2001 32.4096 18.926 32.2883C18.6519 32.167 18.4176 31.9616 18.2528 31.698C18.088 31.4345 18 31.1247 18 30.8077C18 30.3827 18.158 29.975 18.4393 29.6745C18.7206 29.374 19.1022 29.2051 19.5 29.2051Z" fill="black"/>
<path d="M47.531 6.85346C37.0624 5.75862 29.0597 12.1608 28.6852 15.742C28.3108 19.3216 30.1233 22.2261 34.31 22.664C38.4967 23.1019 40.4982 24.2166 40.2176 26.9005C39.843 30.4818 42.7031 33.4958 46.8917 33.9339C60.5013 35.3572 67.4386 29.7473 68.0938 23.4822C69.2173 12.7401 60.0949 8.16743 47.531 6.85346ZM44.3624 10.1408C44.7062 10.1767 45.0406 10.2703 45.3464 10.416C45.6523 10.5617 45.9237 10.7567 46.145 10.99C46.3664 11.2233 46.5335 11.4903 46.6366 11.7756C46.7398 12.061 46.7771 12.359 46.7463 12.653C46.7156 12.9469 46.6174 13.231 46.4574 13.4889C46.2975 13.7467 46.0788 13.9733 45.8139 14.1557C45.5491 14.3382 45.2433 14.4729 44.9139 14.5521C44.5845 14.6314 44.2379 14.6537 43.8941 14.6178C43.1998 14.5452 42.5585 14.2397 42.1114 13.7685C41.6643 13.2974 41.4481 12.6991 41.5102 12.1054C41.5723 11.5117 41.9076 10.9713 42.4425 10.6028C42.9774 10.2344 43.668 10.0682 44.3624 10.1408ZM52.7376 11.0167C53.0814 11.0526 53.4158 11.1462 53.7217 11.2919C54.0276 11.4376 54.299 11.6327 54.5203 11.8659C54.7417 12.0992 54.9087 12.3662 55.0119 12.6515C55.1151 12.9369 55.1524 13.2349 55.1216 13.5289C55.0909 13.8229 54.9927 14.107 54.8327 14.3648C54.6727 14.6226 54.4541 14.8492 54.1893 15.0317C53.9244 15.2141 53.6185 15.3488 53.2891 15.428C52.9597 15.5073 52.6132 15.5297 52.2694 15.4937C51.575 15.4211 50.9338 15.1156 50.4867 14.6444C50.0396 14.1733 49.8233 13.575 49.8854 12.9813C49.9475 12.3876 50.2829 11.8472 50.8178 11.4787C51.3527 11.1103 52.0432 10.9441 52.7376 11.0167ZM59.9427 15.3907C60.2931 15.4192 60.6357 15.5075 60.95 15.6504C61.2644 15.7933 61.5443 15.9878 61.7731 16.2226C62.0019 16.4574 62.175 16.7277 62.2822 17.0174C62.3894 17.3071 62.4284 17.6105 62.3972 17.9095C62.3659 18.2085 62.2649 18.4973 62.1001 18.7585C61.9353 19.0198 61.71 19.2482 61.4376 19.4306C61.1651 19.613 60.8511 19.7456 60.5139 19.8203C60.1768 19.8951 59.8234 19.9105 59.4747 19.8659C58.7944 19.7789 58.1719 19.4686 57.7398 19.0009C57.3077 18.5332 57.1 17.9451 57.161 17.3619C57.222 16.7786 57.5469 16.2463 58.0664 15.8781C58.5859 15.5099 59.2591 15.3351 59.9427 15.3907ZM36.6153 13.3848C37.3096 13.4574 37.9509 13.7629 38.398 14.2341C38.8451 14.7052 39.0614 15.3035 38.9993 15.8972C38.9372 16.4909 38.6018 17.0313 38.0669 17.3998C37.532 17.7682 36.8414 17.9344 36.147 17.8618C35.4527 17.7892 34.8114 17.4837 34.3644 17.0126C33.9173 16.5414 33.701 15.9433 33.7631 15.3496C33.8251 14.7559 34.1606 14.2153 34.6954 13.8468C35.2303 13.4784 35.9209 13.3122 36.6153 13.3848ZM49.4191 25.1496C51.1525 25.3309 52.4344 26.6799 52.2794 28.162C52.1242 29.6457 49.7953 30.617 48.0619 30.4357C47.2289 30.3486 46.4595 29.9822 45.9232 29.4169C45.3868 28.8517 45.1273 28.134 45.2018 27.4218C45.3568 25.9397 47.6838 24.9681 49.4191 25.1496Z" fill="black"/>
<rect x="1" y="1" width="70" height="77" stroke="black" stroke-width="2"/>
</svg>
