<svg width="72" height="79" viewBox="0 0 72 79" fill="none" xmlns="http://www.w3.org/2000/svg">
<rect x="1" y="1" width="70" height="77" fill="white"/>
<path d="M58.4633 20H13.4967C12.3041 20 11.1603 20.3573 10.317 20.9934C9.47375 21.6295 9 22.4921 9 23.3917V57.3083C9 58.2079 9.47375 59.0705 10.317 59.7066C11.1603 60.3427 12.3041 60.7 13.4967 60.7H58.4633C59.6559 60.7 60.7997 60.3427 61.643 59.7066C62.4862 59.0705 62.96 58.2079 62.96 57.3083V23.3917C62.96 22.4921 62.4862 21.6295 61.643 20.9934C60.7997 20.3573 59.6559 20 58.4633 20ZM58.4633 57.3083H13.4967V47.1333L24.7383 38.6542L37.3065 48.1339C38.149 48.7656 39.2887 49.1201 40.4767 49.1201C41.6646 49.1201 42.8043 48.7656 43.6468 48.1339L47.2217 45.4375L58.4633 53.9167V57.3083ZM58.4633 49.1175L50.3918 43.0294C49.5493 42.3977 48.4096 42.0431 47.2217 42.0431C46.0337 42.0431 44.894 42.3977 44.0515 43.0294L40.4767 45.7258L27.9085 36.2461C27.066 35.6144 25.9263 35.2598 24.7383 35.2598C23.5504 35.2598 22.4107 35.6144 21.5682 36.2461L13.4967 42.3341V23.3917H58.4633V49.1175Z" fill="black"/>
<path d="M19.5 35.6154C20.39 35.6154 21.26 35.3334 22.0001 34.8051C22.7401 34.2769 23.3169 33.526 23.6575 32.6475C23.9981 31.769 24.0872 30.8024 23.9135 29.8698C23.7399 28.9372 23.3113 28.0805 22.682 27.4081C22.0526 26.7358 21.2508 26.2779 20.3779 26.0924C19.505 25.9069 18.6002 26.0021 17.7779 26.366C16.9557 26.7298 16.2529 27.3461 15.7584 28.1367C15.2639 28.9273 15 29.8568 15 30.8077C15 32.0828 15.4741 33.3056 16.318 34.2072C17.1619 35.1089 18.3065 35.6154 19.5 35.6154ZM19.5 29.2051C19.7967 29.2051 20.0867 29.2991 20.3334 29.4752C20.58 29.6513 20.7723 29.9016 20.8858 30.1944C20.9993 30.4872 21.0291 30.8095 20.9712 31.1203C20.9133 31.4312 20.7704 31.7168 20.5607 31.9409C20.3509 32.165 20.0836 32.3176 19.7926 32.3795C19.5017 32.4413 19.2001 32.4096 18.926 32.2883C18.6519 32.167 18.4176 31.9616 18.2528 31.698C18.088 31.4345 18 31.1247 18 30.8077C18 30.3827 18.158 29.975 18.4393 29.6745C18.7206 29.374 19.1022 29.2051 19.5 29.2051Z" fill="black"/>
<mask id="path-4-inside-1_121_627" fill="white">
<path d="M41.423 9.89111C41.707 9.71333 41.931 9.41342 42.058 9.01715L42.585 7.36829C42.6203 7.2588 42.6784 7.16566 42.7521 7.10025C42.8258 7.03484 42.912 7 43 7C43.0881 7 43.1743 7.03484 43.248 7.10025C43.3217 7.16566 43.3797 7.2588 43.415 7.36829L43.942 9.00358C44.0636 9.39404 44.2909 9.70635 44.577 9.87618L46.7441 11.1708C47.0851 11.4015 47.0851 12.0977 46.7441 12.3298L44.577 13.6245C44.2929 13.7983 44.0666 14.1093 43.942 14.4971L43.415 16.1323C43.3797 16.2418 43.3217 16.335 43.248 16.4004C43.1743 16.4658 43.0881 16.5006 43 16.5006C42.912 16.5006 42.8258 16.4658 42.7521 16.4004C42.6784 16.335 42.6203 16.2418 42.585 16.1323L42.058 14.4971C41.9365 14.1066 41.7092 13.7943 41.423 13.6245L39.256 12.3298C38.915 12.0991 38.915 11.4029 39.256 11.1708L41.423 9.89111ZM42.165 26.0228C42.3623 25.8955 42.5182 25.6743 42.603 25.4012L42.963 24.2287C43.08 23.8759 43.42 23.8759 43.537 24.2287L43.897 25.4012C43.9784 25.6774 44.1353 25.9002 44.335 26.0228L45.8251 26.9402C46.0581 27.1098 46.0581 27.6051 45.8251 27.7734L44.335 28.6908C44.1375 28.8175 43.9815 29.0389 43.897 29.3123L43.537 30.4849C43.5141 30.5628 43.4745 30.6296 43.4234 30.6766C43.3722 30.7237 43.3118 30.7488 43.25 30.7488C43.1882 30.7488 43.1279 30.7237 43.0767 30.6766C43.0255 30.6296 42.9859 30.5628 42.963 30.4849L42.603 29.3123C42.5217 29.0361 42.3647 28.8134 42.165 28.6908L40.675 27.7734C40.442 27.6038 40.442 27.1084 40.675 26.9402L42.165 26.0228ZM63.0002 42.2847L64.6272 44.5416C64.7337 44.6868 64.8603 44.8021 64.9998 44.8808C65.1392 44.9595 65.2887 45 65.4397 45C65.5907 45 65.7403 44.9595 65.8797 44.8808C66.0191 44.8021 66.1457 44.6868 66.2522 44.5416L66.6622 43.9851C67.1142 43.388 67.1142 42.3974 66.6522 41.8002L65.0072 39.5706L65.0042 39.5746L51.0001 20.5714L49.3331 18.2996C48.8881 17.7093 48.0931 17.7093 47.6581 18.2996L47.3271 18.7474C46.8901 19.35 47.0001 20.5714 47.5001 21.2499L63.0002 42.2847ZM53.2981 12.4967C53.1989 12.7766 53.0284 12.9983 52.8181 13.121L51.1961 14.0506C50.9351 14.2243 50.9351 14.7183 51.1961 14.8784L52.8191 15.808C53.0291 15.9308 53.1992 16.1525 53.2981 16.4323L53.6901 17.5953C53.8201 17.9441 54.1901 17.9441 54.3101 17.5953L54.7021 16.4336C54.8014 16.1537 54.9719 15.932 55.1821 15.8094L56.8042 14.8784C57.0652 14.7047 57.0652 14.2107 56.8042 14.0506L55.1821 13.121C54.9718 12.9984 54.8013 12.7767 54.7021 12.4967L54.3101 11.3337C54.1801 10.9849 53.8101 10.9849 53.6901 11.3337L53.2981 12.4967ZM51.0001 31.428C51.0001 31.0681 50.8947 30.7229 50.7072 30.4684C50.5197 30.2139 50.2653 30.071 50.0001 30.071C49.7349 30.071 49.4805 30.2139 49.293 30.4684C49.1054 30.7229 49.0001 31.0681 49.0001 31.428C49.0001 31.788 49.1054 32.1331 49.293 32.3876C49.4805 32.6422 49.7349 32.7851 50.0001 32.7851C50.2653 32.7851 50.5197 32.6422 50.7072 32.3876C50.8947 32.1331 51.0001 31.788 51.0001 31.428ZM50.0001 7.00052C50.2653 7.00052 50.5197 7.1435 50.7072 7.398C50.8947 7.6525 51.0001 7.99768 51.0001 8.35761C51.0001 8.71753 50.8947 9.06271 50.7072 9.31721C50.5197 9.57172 50.2653 9.71469 50.0001 9.71469C49.7349 9.71469 49.4805 9.57172 49.293 9.31721C49.1054 9.06271 49.0001 8.71753 49.0001 8.35761C49.0001 7.99768 49.1054 7.6525 49.293 7.398C49.4805 7.1435 49.7349 7.00052 50.0001 7.00052ZM41 21.9285C41 21.5685 40.8947 21.2234 40.7071 20.9688C40.5196 20.7143 40.2652 20.5714 40 20.5714C39.7348 20.5714 39.4804 20.7143 39.2929 20.9688C39.1054 21.2234 39 21.5685 39 21.9285C39 22.2884 39.1054 22.6336 39.2929 22.8881C39.4804 23.1426 39.7348 23.2855 40 23.2855C40.2652 23.2855 40.5196 23.1426 40.7071 22.8881C40.8947 22.6336 41 22.2884 41 21.9285ZM58.0002 20.5714C58.2654 20.5714 58.5197 20.7143 58.7073 20.9688C58.8948 21.2234 59.0002 21.5685 59.0002 21.9285C59.0002 22.2884 58.8948 22.6336 58.7073 22.8881C58.5197 23.1426 58.2654 23.2855 58.0002 23.2855C57.7349 23.2855 57.4806 23.1426 57.293 22.8881C57.1055 22.6336 57.0002 22.2884 57.0002 21.9285C57.0002 21.5685 57.1055 21.2234 57.293 20.9688C57.4806 20.7143 57.7349 20.5714 58.0002 20.5714Z"/>
</mask>
<path d="M41.423 9.89111C41.707 9.71333 41.931 9.41342 42.058 9.01715L42.585 7.36829C42.6203 7.2588 42.6784 7.16566 42.7521 7.10025C42.8258 7.03484 42.912 7 43 7C43.0881 7 43.1743 7.03484 43.248 7.10025C43.3217 7.16566 43.3797 7.2588 43.415 7.36829L43.942 9.00358C44.0636 9.39404 44.2909 9.70635 44.577 9.87618L46.7441 11.1708C47.0851 11.4015 47.0851 12.0977 46.7441 12.3298L44.577 13.6245C44.2929 13.7983 44.0666 14.1093 43.942 14.4971L43.415 16.1323C43.3797 16.2418 43.3217 16.335 43.248 16.4004C43.1743 16.4658 43.0881 16.5006 43 16.5006C42.912 16.5006 42.8258 16.4658 42.7521 16.4004C42.6784 16.335 42.6203 16.2418 42.585 16.1323L42.058 14.4971C41.9365 14.1066 41.7092 13.7943 41.423 13.6245L39.256 12.3298C38.915 12.0991 38.915 11.4029 39.256 11.1708L41.423 9.89111ZM42.165 26.0228C42.3623 25.8955 42.5182 25.6743 42.603 25.4012L42.963 24.2287C43.08 23.8759 43.42 23.8759 43.537 24.2287L43.897 25.4012C43.9784 25.6774 44.1353 25.9002 44.335 26.0228L45.8251 26.9402C46.0581 27.1098 46.0581 27.6051 45.8251 27.7734L44.335 28.6908C44.1375 28.8175 43.9815 29.0389 43.897 29.3123L43.537 30.4849C43.5141 30.5628 43.4745 30.6296 43.4234 30.6766C43.3722 30.7237 43.3118 30.7488 43.25 30.7488C43.1882 30.7488 43.1279 30.7237 43.0767 30.6766C43.0255 30.6296 42.9859 30.5628 42.963 30.4849L42.603 29.3123C42.5217 29.0361 42.3647 28.8134 42.165 28.6908L40.675 27.7734C40.442 27.6038 40.442 27.1084 40.675 26.9402L42.165 26.0228ZM63.0002 42.2847L64.6272 44.5416C64.7337 44.6868 64.8603 44.8021 64.9998 44.8808C65.1392 44.9595 65.2887 45 65.4397 45C65.5907 45 65.7403 44.9595 65.8797 44.8808C66.0191 44.8021 66.1457 44.6868 66.2522 44.5416L66.6622 43.9851C67.1142 43.388 67.1142 42.3974 66.6522 41.8002L65.0072 39.5706L65.0042 39.5746L51.0001 20.5714L49.3331 18.2996C48.8881 17.7093 48.0931 17.7093 47.6581 18.2996L47.3271 18.7474C46.8901 19.35 47.0001 20.5714 47.5001 21.2499L63.0002 42.2847ZM53.2981 12.4967C53.1989 12.7766 53.0284 12.9983 52.8181 13.121L51.1961 14.0506C50.9351 14.2243 50.9351 14.7183 51.1961 14.8784L52.8191 15.808C53.0291 15.9308 53.1992 16.1525 53.2981 16.4323L53.6901 17.5953C53.8201 17.9441 54.1901 17.9441 54.3101 17.5953L54.7021 16.4336C54.8014 16.1537 54.9719 15.932 55.1821 15.8094L56.8042 14.8784C57.0652 14.7047 57.0652 14.2107 56.8042 14.0506L55.1821 13.121C54.9718 12.9984 54.8013 12.7767 54.7021 12.4967L54.3101 11.3337C54.1801 10.9849 53.8101 10.9849 53.6901 11.3337L53.2981 12.4967ZM51.0001 31.428C51.0001 31.0681 50.8947 30.7229 50.7072 30.4684C50.5197 30.2139 50.2653 30.071 50.0001 30.071C49.7349 30.071 49.4805 30.2139 49.293 30.4684C49.1054 30.7229 49.0001 31.0681 49.0001 31.428C49.0001 31.788 49.1054 32.1331 49.293 32.3876C49.4805 32.6422 49.7349 32.7851 50.0001 32.7851C50.2653 32.7851 50.5197 32.6422 50.7072 32.3876C50.8947 32.1331 51.0001 31.788 51.0001 31.428ZM50.0001 7.00052C50.2653 7.00052 50.5197 7.1435 50.7072 7.398C50.8947 7.6525 51.0001 7.99768 51.0001 8.35761C51.0001 8.71753 50.8947 9.06271 50.7072 9.31721C50.5197 9.57172 50.2653 9.71469 50.0001 9.71469C49.7349 9.71469 49.4805 9.57172 49.293 9.31721C49.1054 9.06271 49.0001 8.71753 49.0001 8.35761C49.0001 7.99768 49.1054 7.6525 49.293 7.398C49.4805 7.1435 49.7349 7.00052 50.0001 7.00052ZM41 21.9285C41 21.5685 40.8947 21.2234 40.7071 20.9688C40.5196 20.7143 40.2652 20.5714 40 20.5714C39.7348 20.5714 39.4804 20.7143 39.2929 20.9688C39.1054 21.2234 39 21.5685 39 21.9285C39 22.2884 39.1054 22.6336 39.2929 22.8881C39.4804 23.1426 39.7348 23.2855 40 23.2855C40.2652 23.2855 40.5196 23.1426 40.7071 22.8881C40.8947 22.6336 41 22.2884 41 21.9285ZM58.0002 20.5714C58.2654 20.5714 58.5197 20.7143 58.7073 20.9688C58.8948 21.2234 59.0002 21.5685 59.0002 21.9285C59.0002 22.2884 58.8948 22.6336 58.7073 22.8881C58.5197 23.1426 58.2654 23.2855 58.0002 23.2855C57.7349 23.2855 57.4806 23.1426 57.293 22.8881C57.1055 22.6336 57.0002 22.2884 57.0002 21.9285C57.0002 21.5685 57.1055 21.2234 57.293 20.9688C57.4806 20.7143 57.7349 20.5714 58.0002 20.5714Z" fill="black" stroke="white" mask="url(#path-4-inside-1_121_627)"/>
<rect x="1" y="1" width="70" height="77" stroke="black" stroke-width="2"/>
</svg>
