<svg width="72" height="79" viewBox="0 0 72 79" fill="none" xmlns="http://www.w3.org/2000/svg">
<rect x="1" y="1" width="70" height="77" fill="white"/>
<path fill-rule="evenodd" clip-rule="evenodd" d="M50.1215 38.8889C46.9063 38.8889 43.8228 40.1519 41.5493 42.4001C39.2758 44.6483 37.9986 47.6975 37.9986 50.877C37.9986 54.0564 39.2758 57.1056 41.5493 59.3538C43.8228 61.602 46.9063 62.865 50.1215 62.865C53.3366 62.865 56.4201 61.602 58.6936 59.3538C60.9671 57.1056 62.2443 54.0564 62.2443 50.877C62.2443 47.6975 60.9671 44.6483 58.6936 42.4001C56.4201 40.1519 53.3366 38.8889 50.1215 38.8889ZM34.6924 50.877C34.6926 48.4372 35.2844 46.0331 36.4183 43.8663C37.5522 41.6994 39.1949 39.8331 41.2089 38.4238C43.2228 37.0144 45.5491 36.1033 47.9927 35.7667C50.4363 35.43 52.9258 35.6778 55.2526 36.4892C57.5793 37.3005 59.6754 38.6518 61.365 40.4297C63.0545 42.2076 64.2883 44.3603 64.9628 46.7071C65.6372 49.0539 65.7328 51.5264 65.2414 53.9172C64.75 56.3081 63.6859 58.5476 62.1385 60.4478L69.4739 67.7038C69.6363 67.8535 69.7666 68.0339 69.857 68.2345C69.9473 68.435 69.9959 68.6515 69.9998 68.871C70.0037 69.0904 69.9629 69.3085 69.8798 69.512C69.7966 69.7156 69.6729 69.9005 69.5159 70.0557C69.3589 70.2109 69.1719 70.3333 68.9661 70.4155C68.7602 70.4978 68.5398 70.5381 68.3178 70.5343C68.0958 70.5304 67.8769 70.4824 67.6742 70.393C67.4714 70.3037 67.2889 70.1748 67.1375 70.0142L59.7999 62.7604C57.533 64.5659 54.7959 65.7006 51.9046 66.0333C49.0134 66.3659 46.0859 65.883 43.4604 64.6404C40.8349 63.3977 38.6184 61.4459 37.0669 59.0105C35.5154 56.5751 34.6922 53.7554 34.6924 50.877Z" fill="black"/>
<path d="M62.438 15.0663V21.8501H8.48145V15.0663H62.438ZM8.48145 55.7695H35.4597V48.9856H8.48145V55.7695ZM8.48145 38.8098H62.438V32.0259H8.48145V38.8098Z" fill="black"/>
<rect x="1" y="1" width="70" height="77" stroke="black" stroke-width="2"/>
</svg>
